# xmcd
#
# Track frame offsets: 
#        183
#        15185
#        29945
#        40953
#        53720
#        63095
#        77648
#        88268
#        100783
#        115700
#        128168
#        142148
#        154583
#        171733
#        183030
#        200213
#        214018
#        233428
#        248660
#        260015
#        273115
#        280678
#
# Disc length: 3929 seconds
#
# Revision: 4
# Processed by: cddbd v1.5.2PL0 Copyright (c) Steve Scherf et al.
# Submitted via: ExactAudioCopyFreeDBPlugin 1.0
#
DISCID=310f5716
DTITLE=Various Artist - All-Time Greats! (ACE records' sampler)
DYEAR=1994
DGENRE=Blues
TTITLE0=Issac Hayes - Theme From Shaft
TTITLE1=BB King - Don't Get Around Much Anymore
TTITLE2=Chordettes - Mr. Sandman
TTITLE3=Johnnie Taylor - Who's Making Love
TTITLE4=Sam Cooke - Touch The Hem Of His Garment
TTITLE5=John Lee Hooker - Women In My Life
TTITLE6=Jerry Lee Lewis - Send Me The Pillow
TTITLE7=Mel and Tim - Too Much Wheelin' And Dealin'
TTITLE8=Elmore James - Sunnyland
TTITLE9=Standells - Dirty Water
TTITLE10=Dana Gillespie - Big Ten Inch Record
TTITLE11=Hadda Brooks - That's My Desire
TTITLE12=Dexter Gordon - Cry Me A River
TTITLE13=Albert King - All Shook Up
TTITLE14=Little Johnny Taylor - Part Time Love
TTITLE15=Slim Harpo - I'm A King Bee
TTITLE16=Vernis Rucker - Stranger In The Sheets
TTITLE17=Joe Simon - Drowning In A Sea Of Love
TTITLE18=Millie Jackson - My Man, A Sweet Man
TTITLE19=Damned - Smash It Up
TTITLE20=Rockin' Sydney - You Ain't Nothing But Fine
TTITLE21=Jesse Belvin - Goodnight My Love
EXTD=
EXTT0=
EXTT1=
EXTT2=
EXTT3=
EXTT4=
EXTT5=
EXTT6=
EXTT7=
EXTT8=
EXTT9=
EXTT10=
EXTT11=
EXTT12=
EXTT13=
EXTT14=
EXTT15=
EXTT16=
EXTT17=
EXTT18=
EXTT19=
EXTT20=
EXTT21=
PLAYORDER=
